<svg width="526" height="318" viewBox="0 0 526 318" fill="none" xmlns="http://www.w3.org/2000/svg">
<rect width="526" height="318" fill="white"/>
<ellipse cx="225.992" cy="134.218" rx="13.6747" ry="56.3077" transform="rotate(-55.2811 225.992 134.218)" fill="#B6D2C6"/>
<ellipse cx="388.492" cy="135.498" rx="13.6747" ry="56.3077" transform="rotate(-55.2811 388.492 135.498)" fill="#B6D2C6"/>
<ellipse cx="305.477" cy="134.837" rx="13.6747" ry="56.3077" transform="rotate(-123.692 305.477 134.837)" fill="#B6D2C6"/>
<ellipse cx="144.585" cy="133.546" rx="13.6747" ry="56.3077" transform="rotate(-123.692 144.585 133.546)" fill="#B6D2C6"/>
<ellipse cx="83.3768" cy="174.673" rx="7.01964" ry="13.0937" transform="rotate(-123.692 83.3768 174.673)" fill="#B6D2C6"/>
<ellipse cx="447.318" cy="179.65" rx="7.01964" ry="13.0937" transform="rotate(-46.533 447.318 179.65)" fill="#B6D2C6"/>
<path d="M163.56 239L154.1 208.2H153.88C153.917 208.933 153.972 210.033 154.045 211.5C154.118 212.967 154.192 214.543 154.265 216.23C154.338 217.88 154.375 219.383 154.375 220.74V239H146.95V199.73H158.28L167.575 229.76H167.74L177.585 199.73H188.915V239H181.16V220.41C181.16 219.163 181.178 217.733 181.215 216.12C181.288 214.507 181.343 212.985 181.38 211.555C181.453 210.088 181.508 208.988 181.545 208.255H181.325L171.205 239H163.56ZM207.025 214.43C209.095 214.43 210.865 214.88 212.335 215.78C213.835 216.68 214.975 217.955 215.755 219.605C216.565 221.225 216.97 223.13 216.97 225.32V227.705H200.455C200.515 230.435 201.205 232.52 202.525 233.96C203.875 235.37 205.75 236.075 208.15 236.075C209.68 236.075 211.03 235.94 212.2 235.67C213.4 235.37 214.63 234.95 215.89 234.41V237.875C214.66 238.415 213.445 238.805 212.245 239.045C211.045 239.315 209.62 239.45 207.97 239.45C205.69 239.45 203.665 238.985 201.895 238.055C200.155 237.125 198.79 235.745 197.8 233.915C196.84 232.055 196.36 229.79 196.36 227.12C196.36 224.48 196.795 222.215 197.665 220.325C198.565 218.435 199.81 216.98 201.4 215.96C203.02 214.94 204.895 214.43 207.025 214.43ZM206.98 217.67C205.09 217.67 203.59 218.285 202.48 219.515C201.4 220.715 200.755 222.395 200.545 224.555H212.83C212.83 223.175 212.62 221.975 212.2 220.955C211.78 219.935 211.135 219.14 210.265 218.57C209.425 217.97 208.33 217.67 206.98 217.67ZM231.66 239.45C228.66 239.45 226.26 238.415 224.46 236.345C222.66 234.245 221.76 231.125 221.76 226.985C221.76 222.845 222.66 219.725 224.46 217.625C226.29 215.495 228.705 214.43 231.705 214.43C232.965 214.43 234.06 214.595 234.99 214.925C235.92 215.225 236.73 215.645 237.42 216.185C238.11 216.725 238.695 217.325 239.175 217.985H239.445C239.415 217.595 239.355 217.025 239.265 216.275C239.205 215.495 239.175 214.88 239.175 214.43V204.8H243.135V239H239.94L239.355 235.76H239.175C238.695 236.45 238.11 237.08 237.42 237.65C236.73 238.19 235.905 238.625 234.945 238.955C234.015 239.285 232.92 239.45 231.66 239.45ZM232.29 236.165C234.84 236.165 236.625 235.475 237.645 234.095C238.695 232.685 239.22 230.57 239.22 227.75V227.03C239.22 224.03 238.725 221.735 237.735 220.145C236.745 218.525 234.915 217.715 232.245 217.715C230.115 217.715 228.51 218.57 227.43 220.28C226.38 221.96 225.855 224.225 225.855 227.075C225.855 229.955 226.38 232.19 227.43 233.78C228.51 235.37 230.13 236.165 232.29 236.165ZM254.756 214.88V239H250.796V214.88H254.756ZM252.821 205.835C253.421 205.835 253.946 206.045 254.396 206.465C254.876 206.855 255.116 207.485 255.116 208.355C255.116 209.195 254.876 209.825 254.396 210.245C253.946 210.665 253.421 210.875 252.821 210.875C252.161 210.875 251.606 210.665 251.156 210.245C250.706 209.825 250.481 209.195 250.481 208.355C250.481 207.485 250.706 206.855 251.156 206.465C251.606 206.045 252.161 205.835 252.821 205.835ZM270.452 236.21C271.052 236.21 271.667 236.165 272.297 236.075C272.927 235.955 273.437 235.835 273.827 235.715V238.73C273.407 238.94 272.807 239.105 272.027 239.225C271.247 239.375 270.497 239.45 269.777 239.45C268.517 239.45 267.347 239.24 266.267 238.82C265.217 238.37 264.362 237.605 263.702 236.525C263.042 235.445 262.712 233.93 262.712 231.98V217.94H259.292V216.05L262.757 214.475L264.332 209.345H266.672V214.88H273.647V217.94H266.672V231.89C266.672 233.36 267.017 234.455 267.707 235.175C268.427 235.865 269.342 236.21 270.452 236.21ZM303.817 239L300.957 229.65H286.657L283.797 239H274.832L288.692 199.565H298.867L312.782 239H303.817ZM296.117 213.535C295.934 212.912 295.695 212.123 295.402 211.17C295.109 210.217 294.815 209.245 294.522 208.255C294.229 207.265 293.99 206.403 293.807 205.67C293.624 206.403 293.367 207.32 293.037 208.42C292.744 209.483 292.45 210.51 292.157 211.5C291.9 212.453 291.699 213.132 291.552 213.535L288.747 222.665H298.977L296.117 213.535ZM326.306 239.45C324.176 239.45 322.271 239.015 320.591 238.145C318.941 237.275 317.636 235.925 316.676 234.095C315.746 232.265 315.281 229.925 315.281 227.075C315.281 224.105 315.776 221.69 316.766 219.83C317.756 217.97 319.091 216.605 320.771 215.735C322.481 214.865 324.416 214.43 326.576 214.43C327.806 214.43 328.991 214.565 330.131 214.835C331.271 215.075 332.201 215.375 332.921 215.735L331.706 219.02C330.986 218.75 330.146 218.495 329.186 218.255C328.226 218.015 327.326 217.895 326.486 217.895C324.866 217.895 323.531 218.24 322.481 218.93C321.431 219.62 320.651 220.64 320.141 221.99C319.631 223.34 319.376 225.02 319.376 227.03C319.376 228.95 319.631 230.585 320.141 231.935C320.651 233.285 321.416 234.305 322.436 234.995C323.456 235.685 324.731 236.03 326.261 236.03C327.581 236.03 328.736 235.895 329.726 235.625C330.746 235.355 331.676 235.025 332.516 234.635V238.145C331.706 238.565 330.806 238.88 329.816 239.09C328.856 239.33 327.686 239.45 326.306 239.45ZM346.307 236.21C346.907 236.21 347.522 236.165 348.152 236.075C348.782 235.955 349.292 235.835 349.682 235.715V238.73C349.262 238.94 348.662 239.105 347.882 239.225C347.102 239.375 346.352 239.45 345.632 239.45C344.372 239.45 343.202 239.24 342.122 238.82C341.072 238.37 340.217 237.605 339.557 236.525C338.897 235.445 338.567 233.93 338.567 231.98V217.94H335.147V216.05L338.612 214.475L340.187 209.345H342.527V214.88H349.502V217.94H342.527V231.89C342.527 233.36 342.872 234.455 343.562 235.175C344.282 235.865 345.197 236.21 346.307 236.21ZM358.472 214.88V239H354.512V214.88H358.472ZM356.537 205.835C357.137 205.835 357.662 206.045 358.112 206.465C358.592 206.855 358.832 207.485 358.832 208.355C358.832 209.195 358.592 209.825 358.112 210.245C357.662 210.665 357.137 210.875 356.537 210.875C355.877 210.875 355.322 210.665 354.872 210.245C354.422 209.825 354.197 209.195 354.197 208.355C354.197 207.485 354.422 206.855 354.872 206.465C355.322 206.045 355.877 205.835 356.537 205.835ZM371.423 239L362.288 214.88H366.518L371.648 229.1C371.888 229.76 372.143 230.495 372.413 231.305C372.683 232.115 372.923 232.895 373.133 233.645C373.343 234.365 373.493 234.98 373.583 235.49H373.763C373.883 234.98 374.048 234.35 374.258 233.6C374.498 232.85 374.753 232.07 375.023 231.26C375.323 230.45 375.578 229.73 375.788 229.1L380.918 214.88H385.148L375.968 239H371.423ZM398.28 214.43C400.35 214.43 402.12 214.88 403.59 215.78C405.09 216.68 406.23 217.955 407.01 219.605C407.82 221.225 408.225 223.13 408.225 225.32V227.705H391.71C391.77 230.435 392.46 232.52 393.78 233.96C395.13 235.37 397.005 236.075 399.405 236.075C400.935 236.075 402.285 235.94 403.455 235.67C404.655 235.37 405.885 234.95 407.145 234.41V237.875C405.915 238.415 404.7 238.805 403.5 239.045C402.3 239.315 400.875 239.45 399.225 239.45C396.945 239.45 394.92 238.985 393.15 238.055C391.41 237.125 390.045 235.745 389.055 233.915C388.095 232.055 387.615 229.79 387.615 227.12C387.615 224.48 388.05 222.215 388.92 220.325C389.82 218.435 391.065 216.98 392.655 215.96C394.275 214.94 396.15 214.43 398.28 214.43ZM398.235 217.67C396.345 217.67 394.845 218.285 393.735 219.515C392.655 220.715 392.01 222.395 391.8 224.555H404.085C404.085 223.175 403.875 221.975 403.455 220.955C403.035 219.935 402.39 219.14 401.52 218.57C400.68 217.97 399.585 217.67 398.235 217.67Z" fill="#B6D2C6"/>
</svg>
